# Blender 4.5.10 LTS
# www.blender.org
mtllib penguin.mtl
o animal-penguin
v -0.062500 0.062500 -0.125000
v -0.062500 0.062500 0.125000
v -0.100000 0.306250 -0.100000
v -0.100000 0.306250 0.100000
v -0.150000 0.306250 0.150000
v -0.125000 0.062500 0.187500
v -0.150000 0.306250 -0.150000
v -0.125000 0.062500 -0.187500
v -0.437500 0.062500 0.125000
v -0.400000 0.306250 0.100000
v -0.375000 0.062500 0.187500
v -0.350000 0.306250 0.150000
v -0.350000 0.306250 -0.150000
v -0.400000 0.306250 -0.100000
v -0.375000 0.000000 0.099112
v -0.375000 -0.000000 -0.099112
v -0.437500 0.062500 -0.125000
v -0.375000 0.062500 -0.187500
v -0.349112 -0.000000 -0.125000
v -0.150888 -0.000000 -0.125000
v -0.125000 -0.000000 -0.099112
v -0.125000 0.000000 0.099112
v -0.150888 0.000000 0.125000
v -0.349112 0.000000 0.125000
v 0.262500 1.093750 0.635000
v 0.362500 1.066955 0.635000
v 0.162500 1.066955 0.635000
v 0.182708 1.013958 0.635000
v 0.122604 0.997853 0.635000
v 0.089295 0.993750 0.635000
v 0.078605 0.953854 0.635000
v 0.242812 0.997853 0.635000
v 0.435705 0.993750 0.635000
v 0.286812 0.953854 0.635000
v 0.302916 0.893750 0.635000
v 0.462500 0.893750 0.635000
v 0.286812 0.833646 0.635000
v 0.435705 0.793750 0.635030
v 0.242812 0.789647 0.635000
v 0.182708 0.773542 0.635000
v 0.362500 0.720545 0.635000
v 0.089295 0.793750 0.635000
v 0.122604 0.789647 0.635000
v 0.078605 0.833646 0.635000
v 0.162500 0.720545 0.635000
v 0.262500 0.693750 0.635000
v -0.262500 1.093750 0.635000
v -0.362500 1.066955 0.635000
v -0.162500 1.066955 0.635000
v -0.182708 1.013958 0.635000
v -0.122604 0.997853 0.635000
v -0.089295 0.993750 0.635000
v -0.078605 0.953854 0.635000
v -0.242812 0.997853 0.635000
v -0.435705 0.993750 0.635000
v -0.286812 0.953854 0.635000
v -0.302916 0.893750 0.635000
v -0.462500 0.893750 0.635000
v -0.286812 0.833646 0.635000
v -0.435705 0.793750 0.635000
v -0.242812 0.789647 0.635000
v -0.182708 0.773542 0.635000
v -0.362500 0.720545 0.635000
v -0.089295 0.793750 0.635000
v -0.122604 0.789647 0.635000
v -0.078605 0.833646 0.635000
v -0.162500 0.720545 0.635000
v -0.262500 0.693750 0.635000
v 0.242513 1.232160 0.549393
v 0.425911 1.232160 0.549393
v 0.078125 1.118750 0.625000
v 0.312500 1.118750 0.625000
v -0.312500 1.118750 0.625000
v 0.482194 1.128006 0.511871
v -0.078125 1.118750 0.625000
v -0.242513 1.232160 0.549393
v -0.425910 1.232160 0.549393
v -0.482193 1.128006 0.511871
v -0.500000 0.985375 0.500000
v 0.500000 0.985375 0.500000
v -0.312527 0.493737 0.625110
v -0.500460 0.303979 0.502952
v 0.312650 0.493600 0.625586
v 0.500678 0.304555 0.502712
v 0.312500 0.181222 0.312512
v -0.312500 0.181164 0.312517
v 0.312500 0.181250 -0.312500
v -0.312500 0.181250 -0.312500
v 0.062500 0.893750 0.635000
v -0.062500 0.893750 0.635000
v 0.624005 1.110312 0.304061
v 0.625620 0.493657 0.312690
v 0.499576 1.305706 0.499353
v 0.502773 0.304519 0.500004
v 0.500000 0.985374 0.500000
v -0.500000 0.306250 -0.500000
v -0.500000 1.306250 -0.500000
v -0.625000 0.493750 -0.312500
v -0.625000 1.118750 -0.312500
v -0.312500 0.493750 -0.625000
v -0.312500 1.118750 -0.625000
v 0.501522 1.299724 -0.501415
v 0.313669 1.431984 -0.313495
v -0.312500 1.431250 -0.312500
v 0.500000 0.306250 -0.500000
v 0.312500 0.181250 -0.312500
v -0.312500 0.181250 -0.312500
v 0.552361 0.911988 -0.109228
v 0.312517 0.181225 0.312500
v 0.312500 0.493750 -0.625000
v 0.312559 1.118787 -0.625051
v -0.500000 0.985374 0.500000
v -0.499534 1.305889 0.499283
v -0.625000 0.493750 0.312500
v -0.624842 1.117961 0.312342
v 0.312500 1.431250 0.312500
v -0.312500 1.431250 0.312500
v -0.078125 1.118750 0.625000
v 0.625000 0.493750 -0.312500
v -0.503307 0.304512 0.500355
v -0.312548 0.181177 0.312500
v -0.089000 1.594250 0.400000
v -0.062932 1.594250 0.462932
v -0.062932 1.594250 0.337067
v 0.000000 1.594250 0.311000
v 0.000000 1.594250 0.489000
v 0.062933 1.594250 0.337067
v 0.062933 1.594250 0.462932
v 0.089000 1.594250 0.400000
v 0.095714 1.522250 0.304286
v 0.135360 1.522250 0.400000
v 0.070711 1.306250 0.329289
v 0.100000 1.306250 0.400000
v -0.095714 1.522250 0.304286
v -0.135360 1.522250 0.400000
v -0.070711 1.306250 0.470711
v 0.000000 1.306250 0.500000
v -0.095714 1.522250 0.495714
v 0.000000 1.522250 0.535360
v -0.070711 1.306250 0.329289
v -0.100000 1.306250 0.400000
v 0.095714 1.522250 0.495714
v 0.000000 1.306250 0.300000
v 0.000000 1.522250 0.264640
v 0.070711 1.306250 0.470711
v -0.316426 1.479076 0.231954
v -0.305638 1.512526 0.290304
v -0.282063 1.471693 0.173604
v -0.222680 1.494702 0.149435
v -0.256020 1.552449 0.314473
v -0.173061 1.534625 0.173604
v -0.196636 1.575458 0.290304
v -0.162273 1.568076 0.231954
v -0.105153 1.482568 0.170181
v -0.088746 1.533442 0.258926
v -0.031354 1.304737 0.274279
v -0.019233 1.342322 0.339841
v -0.270934 1.386854 0.170181
v -0.323196 1.398082 0.258926
v -0.180317 1.279906 0.405403
v -0.124565 1.324764 0.432559
v -0.306789 1.448957 0.347670
v -0.231324 1.509676 0.384429
v -0.153828 1.234027 0.274279
v -0.192438 1.242322 0.339841
v -0.141008 1.544671 0.347670
v -0.087105 1.259880 0.247122
v -0.180618 1.421849 0.133422
v -0.057842 1.350617 0.405403
v 0.316426 1.479076 0.231954
v 0.305638 1.512526 0.290304
v 0.282063 1.471693 0.173604
v 0.222680 1.494702 0.149435
v 0.256020 1.552449 0.314473
v 0.173061 1.534625 0.173604
v 0.196636 1.575458 0.290304
v 0.162273 1.568076 0.231954
v 0.105153 1.482568 0.170181
v 0.088746 1.533442 0.258926
v 0.031354 1.304737 0.274279
v 0.019233 1.342322 0.339841
v 0.270202 1.387180 0.170709
v 0.321082 1.397162 0.259419
v 0.180317 1.279906 0.405403
v 0.124565 1.324764 0.432559
v 0.306789 1.448957 0.347670
v 0.231324 1.509676 0.384429
v 0.153828 1.234027 0.274279
v 0.192438 1.242322 0.339841
v 0.141008 1.544671 0.347670
v 0.087105 1.259880 0.247122
v 0.180618 1.421849 0.133422
v 0.057842 1.350617 0.405403
v 0.000000 0.853750 0.525000
v 0.000000 0.817270 0.725000
v -0.162635 0.797515 0.525000
v -0.131734 0.771719 0.725000
v -0.230000 0.661750 0.525000
v -0.186300 0.661750 0.725000
v 0.162635 0.797515 0.525000
v 0.230000 0.661750 0.525000
v 0.131734 0.771719 0.725000
v 0.186300 0.661750 0.725000
v -0.171790 0.601750 0.525000
v -0.128090 0.601750 0.725000
v 0.171790 0.601750 0.525000
v 0.128090 0.601750 0.725000
v 0.168933 0.626750 0.725000
v 0.212633 0.626750 0.525000
v -0.168933 0.626750 0.725000
v -0.212633 0.626750 0.525000
v 1.063816 0.693750 0.245894
v 0.979264 0.693750 0.355701
v 1.017174 0.743750 0.224513
v 0.948746 0.743750 0.313380
v 1.094764 0.593750 0.095894
v 1.063816 0.593750 -0.054106
v 1.043711 0.543750 0.095894
v 1.017174 0.543750 -0.032726
v 0.463660 0.593750 -0.054106
v 0.632764 0.593750 -0.163914
v 0.463660 0.693750 -0.054106
v 0.632764 0.693750 -0.163914
v 1.094764 0.693750 0.095894
v 1.043711 0.743750 0.095894
v 1.063816 0.693750 -0.054106
v 1.017174 0.743750 -0.032726
v 0.632005 0.592508 0.357634
v 0.631629 0.695063 0.358592
v 0.863764 0.593750 0.395894
v 0.863768 0.693770 0.395930
v 0.503943 0.543750 -0.020648
v 0.455853 0.543750 0.095894
v 0.401764 0.593750 0.095894
v 0.651414 0.543750 -0.116408
v 1.063816 0.593750 0.245894
v 0.503635 0.744860 0.212750
v 0.462640 0.694434 0.246652
v 0.455853 0.743750 0.095894
v 0.401764 0.693750 0.095894
v 0.859569 0.743781 0.344423
v 0.859569 0.543750 0.344412
v 0.651283 0.542610 0.308528
v 0.503943 0.743750 -0.020648
v 0.503841 0.543382 0.212540
v 0.462972 0.593435 0.246425
v 0.863764 0.593750 -0.204106
v 0.859569 0.543750 -0.152625
v 1.017174 0.543750 0.224513
v 0.948746 0.543750 0.313380
v 0.948746 0.543750 -0.121593
v 0.979264 0.593750 0.355701
v 0.863764 0.693750 -0.204106
v 0.859569 0.743750 -0.152625
v 0.651414 0.743750 -0.116408
v 0.979264 0.593750 -0.163914
v 0.979264 0.693750 -0.163914
v 0.948746 0.743750 -0.121593
v 0.651062 0.746123 0.309091
v -1.063816 0.593750 0.245894
v -0.979264 0.593750 0.355701
v -1.017174 0.543750 0.224513
v -0.948746 0.543750 0.313380
v -1.094764 0.693750 0.095894
v -1.063816 0.693750 -0.054106
v -1.043711 0.743750 0.095894
v -1.017174 0.743750 -0.032726
v -0.463660 0.693750 -0.054106
v -0.632764 0.693750 -0.163914
v -0.463660 0.593750 -0.054106
v -0.632764 0.593750 -0.163914
v -1.094764 0.593750 0.095894
v -1.043711 0.543750 0.095894
v -1.063816 0.593750 -0.054106
v -1.017174 0.543750 -0.032726
v -0.632764 0.693750 0.355701
v -0.632764 0.593750 0.355701
v -0.863764 0.693750 0.395894
v -0.863764 0.593750 0.395894
v -0.503943 0.743750 -0.020648
v -0.455853 0.743750 0.095894
v -0.401764 0.693750 0.095894
v -0.651414 0.743750 -0.116408
v -1.063816 0.693750 0.245894
v -0.503943 0.543750 0.212435
v -0.463660 0.593750 0.245894
v -0.455853 0.543750 0.095894
v -0.401764 0.593750 0.095894
v -0.859569 0.543750 0.344412
v -0.859569 0.743750 0.344412
v -0.651414 0.743750 0.308195
v -0.503943 0.543750 -0.020648
v -0.503943 0.743750 0.212435
v -0.463660 0.693750 0.245894
v -0.863764 0.693750 -0.204106
v -0.859569 0.743750 -0.152625
v -1.017174 0.743750 0.224513
v -0.948746 0.743750 0.313380
v -0.948746 0.743750 -0.121593
v -0.979264 0.693750 0.355701
v -0.863764 0.593750 -0.204106
v -0.859569 0.543750 -0.152625
v -0.651414 0.543750 -0.116408
v -0.979264 0.693750 -0.163914
v -0.979264 0.593750 -0.163914
v -0.948746 0.543750 -0.121593
v -0.651414 0.543750 0.308195
v 0.350000 0.306250 0.150000
v 0.400000 0.306250 0.100000
v 0.375000 0.062500 0.187500
v 0.437500 0.062500 0.125000
v 0.062500 0.062500 0.125000
v 0.100000 0.306250 0.100000
v 0.125000 0.062500 0.187500
v 0.150000 0.306250 0.150000
v 0.062500 0.062500 -0.125000
v 0.100000 0.306250 -0.100000
v 0.437500 0.062500 -0.125000
v 0.400000 0.306250 -0.100000
v 0.125000 0.062500 -0.187500
v 0.375000 0.062500 -0.187500
v 0.150000 0.306250 -0.150000
v 0.350000 0.306250 -0.150000
v 0.150888 -0.000000 -0.125000
v 0.349112 -0.000000 -0.125000
v 0.150888 0.000000 0.125000
v 0.349112 0.000000 0.125000
v 0.125000 0.000000 0.099112
v 0.125000 -0.000000 -0.099112
v 0.375000 -0.000000 -0.099112
v 0.375000 0.000000 0.099112
vn 0.9125 0.1782 -0.3682
vn 0.8833 -0.2865 0.3711
vn 0.8833 -0.2865 -0.3711
vn 0.9125 0.1782 0.3682
vn 0.3711 -0.2865 0.8833
vn 0.3682 0.1782 0.9125
vn 0.3711 -0.2865 -0.8833
vn 0.3682 0.1782 -0.9125
vn -0.3711 -0.2865 0.8833
vn -0.9125 0.1782 0.3682
vn -0.8833 -0.2865 0.3711
vn -0.3682 0.1782 0.9125
vn -0.0000 1.0000 -0.0000
vn -0.4044 -0.8991 -0.1675
vn -0.4044 -0.8991 0.1675
vn -0.8833 -0.2865 -0.3711
vn -0.1675 -0.8991 -0.4044
vn -0.3711 -0.2865 -0.8833
vn 0.1675 -0.8991 -0.4044
vn -0.9125 0.1782 -0.3682
vn 0.4044 -0.8991 0.1675
vn 0.4044 -0.8991 -0.1675
vn 0.1675 -0.8991 0.4044
vn -0.3682 0.1782 -0.9125
vn -0.1675 -0.8991 0.4044
vn -0.0000 -0.0000 1.0000
vn -0.0000 0.0001 1.0000
vn -0.0001 0.0001 1.0000
vn -0.0001 0.0003 1.0000
vn -0.0001 -0.0002 1.0000
vn -0.0000 0.1027 0.9947
vn 0.3740 0.2257 0.8995
vn -0.0000 0.5547 0.8320
vn 0.2232 0.2235 0.9488
vn -0.2232 0.2233 0.9489
vn 0.2232 0.2233 0.9489
vn 0.5547 -0.0000 0.8321
vn -0.2233 0.2233 0.9488
vn -0.3740 0.2257 0.8996
vn -0.5547 -0.0000 0.8320
vn -0.3740 0.2257 0.8995
vn -0.5538 0.0007 0.8327
vn 0.5542 0.0011 0.8324
vn -0.2213 -0.2153 0.9512
vn -0.2041 -0.5177 0.8309
vn 0.2215 -0.2168 0.9508
vn 0.2056 -0.5179 0.8304
vn 0.0004 -0.9426 0.3340
vn 0.0001 -0.9429 0.3330
vn -0.0000 -1.0000 -0.0001
vn 0.6175 0.5756 0.5360
vn 0.9509 -0.2166 0.2212
vn 0.9047 0.4261 -0.0034
vn 0.8302 -0.5189 0.2040
vn -0.3213 -0.5200 -0.7914
vn 0.1238 0.5758 -0.8082
vn -0.0268 -0.0011 -0.9996
vn -0.9490 -0.2215 -0.2243
vn -0.5773 0.5774 -0.5773
vn -0.5769 -0.5769 -0.5783
vn -0.9489 0.2235 -0.2230
vn -0.2232 -0.2232 -0.9489
vn -0.2233 0.2232 -0.9489
vn 0.2323 0.9447 -0.2316
vn 0.6633 0.5238 -0.5345
vn -0.2244 0.9488 -0.2224
vn 0.2995 -0.9048 -0.3027
vn 0.6054 -0.5501 -0.5753
vn -0.2994 -0.9048 -0.3028
vn 0.9571 0.2053 -0.2044
vn 0.5439 -0.8392 -0.0000
vn 0.2223 -0.2239 -0.9489
vn 0.2194 0.2276 -0.9487
vn -0.5675 0.0029 0.8233
vn -0.5777 0.5792 0.5751
vn -0.8322 0.0024 0.5545
vn -0.2598 0.3518 0.8993
vn -0.9515 -0.2165 0.2185
vn -0.9488 0.2239 0.2230
vn -0.2243 0.9483 0.2246
vn 0.2236 0.9482 0.2256
vn 0.2571 0.3448 0.9028
vn -0.2571 0.3448 0.9028
vn 0.2574 0.3536 0.8993
vn 0.5812 0.5801 0.5708
vn 0.5663 0.0027 0.8242
vn 0.8313 0.0022 0.5559
vn 0.2622 0.3487 0.8998
vn 0.9015 -0.0055 -0.4328
vn -0.8309 -0.5181 0.2028
vn -0.2536 0.5774 -0.7761
vn 0.1857 -0.5198 -0.8339
vn -0.1382 -0.0010 -0.9904
vn -0.5430 -0.8397 -0.0001
vn -0.0000 0.8282 0.5605
vn -0.3963 0.8282 0.3963
vn -0.0000 0.1880 0.9822
vn -0.6945 0.1880 0.6945
vn 0.6945 0.1880 0.6945
vn 0.6978 -0.1616 0.6978
vn -0.0000 -0.1616 0.9869
vn -0.0000 0.1880 -0.9822
vn 0.6945 0.1880 -0.6945
vn -0.0000 -0.1616 -0.9869
vn 0.6978 -0.1616 -0.6978
vn -0.0000 0.8282 -0.5605
vn 0.3963 0.8282 -0.3963
vn -0.5605 0.8282 -0.0000
vn -0.9822 0.1880 -0.0000
vn 0.5605 0.8282 -0.0000
vn 0.9822 0.1880 -0.0000
vn 0.3963 0.8282 0.3963
vn -0.3963 0.8282 -0.3963
vn -0.6945 0.1880 -0.6945
vn -0.6978 -0.1616 0.6978
vn -0.9869 -0.1616 -0.0000
vn 0.9869 -0.1616 -0.0000
vn -0.6978 -0.1616 -0.6978
vn -0.4889 0.8468 0.2094
vn -0.8014 0.5954 0.0572
vn -0.2711 0.4696 0.8402
vn -0.8187 0.0290 0.5735
vn 0.3842 0.7235 0.5735
vn 0.5485 0.4456 0.7075
vn -0.1099 0.1904 0.9755
vn 0.0968 -0.1677 -0.9811
vn 0.6444 0.2729 -0.7143
vn 0.2597 -0.4499 -0.8545
vn 0.8099 -0.0072 -0.5865
vn -0.2790 0.4832 -0.8299
vn 0.0335 0.7346 -0.6777
vn -0.8693 0.3848 -0.3102
vn -0.9377 -0.3402 -0.0704
vn 0.1014 0.9452 -0.3102
vn 0.7635 0.6420 -0.0704
vn -0.1150 0.9917 0.0572
vn -0.6529 0.3383 -0.6777
vn -0.5585 -0.4216 -0.7143
vn -0.6601 -0.2522 0.7075
vn -0.7798 -0.6232 0.0605
vn 0.9295 0.3637 0.0605
vn -0.3987 -0.7050 -0.5865
vn 0.6560 0.3313 -0.6782
vn 0.8014 0.5954 0.0572
vn 0.8734 0.3740 -0.3118
vn 0.2800 0.4816 -0.8305
vn 0.4889 0.8468 0.2094
vn -0.0335 0.7346 -0.6777
vn 0.1150 0.9917 0.0572
vn -0.1014 0.9452 -0.3102
vn -0.8099 -0.0072 -0.5865
vn -0.7635 0.6420 -0.0704
vn -0.6444 0.2729 -0.7143
vn -0.9295 0.3637 0.0605
vn 0.9332 -0.3523 -0.0714
vn 0.5618 -0.4229 -0.7111
vn 0.8212 0.0253 0.5701
vn 0.1099 0.1904 0.9755
vn 0.6620 -0.2517 0.7060
vn 0.2711 0.4696 0.8402
vn 0.4011 -0.7033 -0.5869
vn 0.7827 -0.6196 0.0590
vn -0.3842 0.7235 0.5735
vn -0.0939 -0.1687 -0.9812
vn -0.2597 -0.4499 -0.8545
vn -0.5485 0.4456 0.7075
vn -0.6528 0.7319 0.1953
vn -0.0000 0.7078 0.7064
vn -0.0000 0.9838 0.1794
vn -0.4656 0.5376 0.7029
vn -0.9770 -0.0000 0.2135
vn -0.7154 -0.0000 0.6987
vn 0.4656 0.5376 0.7029
vn 0.9770 -0.0000 0.2135
vn 0.6528 0.7319 0.1953
vn 0.7154 -0.0000 0.6987
vn 0.3042 -0.9503 0.0665
vn -0.2358 -0.9704 0.0515
vn -0.3042 -0.9503 0.0665
vn 0.2358 -0.9704 0.0515
vn 0.5092 -0.4914 0.7066
vn 0.7440 -0.6481 0.1626
vn -0.5092 -0.4914 0.7066
vn -0.7440 -0.6481 0.1626
vn -0.0000 -0.0000 -1.0000
vn 0.3830 0.9069 0.1756
vn 0.5438 0.3688 0.7539
vn 0.8445 0.3701 0.3871
vn 0.2510 0.9033 0.3478
vn 0.4182 -0.9083 -0.0000
vn 0.8445 -0.3701 -0.3871
vn 0.9287 -0.3707 -0.0000
vn 0.3830 -0.9069 -0.1756
vn -0.7151 0.3687 -0.5939
vn -0.3394 -0.3708 -0.8645
vn -0.7151 -0.3687 -0.5939
vn -0.3394 0.3708 -0.8645
vn 0.8445 0.3701 -0.3871
vn 0.4182 0.9083 -0.0000
vn 0.9287 0.3707 -0.0000
vn 0.3830 0.9069 -0.1756
vn 0.0811 -0.3699 0.9255
vn -0.3378 0.3710 0.8650
vn -0.3367 -0.3822 0.8606
vn 0.0822 0.3692 0.9257
vn -0.4387 -0.8986 -0.0022
vn -0.3314 -0.9024 -0.2754
vn -0.9295 -0.3688 -0.0026
vn -0.1532 -0.9080 -0.3901
vn 0.8445 -0.3701 0.3871
vn -0.4418 0.8971 -0.0046
vn -0.7207 0.3685 0.5872
vn -0.3349 0.9036 0.2672
vn -0.9297 0.3684 -0.0035
vn 0.0406 0.9057 0.4220
vn 0.0387 -0.9055 0.4225
vn -0.1487 -0.9128 0.3804
vn -0.3324 0.9016 -0.2766
vn -0.7181 -0.3727 0.5877
vn -0.3314 -0.9043 0.2691
vn 0.0348 -0.9051 -0.4237
vn 0.0755 -0.3694 -0.9262
vn 0.3830 -0.9069 0.1756
vn 0.2508 -0.9034 0.3479
vn 0.2508 -0.9034 -0.3479
vn 0.5437 -0.3688 0.7539
vn 0.0345 0.9053 -0.4234
vn 0.0755 0.3694 -0.9262
vn -0.1524 0.9080 -0.3902
vn 0.5437 -0.3688 -0.7539
vn 0.5437 0.3688 -0.7539
vn 0.2509 0.9033 -0.3479
vn -0.1472 0.9121 0.3826
vn -0.3830 -0.9069 0.1756
vn -0.5437 -0.3688 0.7539
vn -0.8445 -0.3701 0.3871
vn -0.2508 -0.9034 0.3479
vn -0.4182 0.9083 -0.0000
vn -0.8445 0.3701 -0.3871
vn -0.9287 0.3707 -0.0000
vn -0.3830 0.9069 -0.1756
vn 0.7151 -0.3687 -0.5939
vn 0.3394 0.3708 -0.8645
vn 0.7151 0.3687 -0.5939
vn 0.3394 -0.3708 -0.8645
vn -0.8445 -0.3701 -0.3871
vn -0.4182 -0.9083 -0.0000
vn -0.9287 -0.3707 -0.0000
vn -0.3830 -0.9069 -0.1756
vn -0.0755 0.3694 0.9262
vn 0.3394 -0.3708 0.8645
vn 0.3394 0.3708 0.8645
vn -0.0755 -0.3694 0.9262
vn 0.4376 0.8992 -0.0000
vn 0.3309 0.9028 -0.2748
vn 0.9295 0.3688 -0.0000
vn 0.1527 0.9084 -0.3891
vn -0.8445 0.3701 0.3871
vn 0.4376 -0.8992 -0.0000
vn 0.7151 -0.3687 0.5939
vn 0.3309 -0.9028 0.2748
vn 0.9295 -0.3688 -0.0000
vn -0.0345 -0.9053 0.4234
vn -0.0345 0.9053 0.4233
vn 0.1527 0.9084 0.3891
vn 0.3309 -0.9028 -0.2748
vn 0.7151 0.3687 0.5939
vn 0.3309 0.9028 0.2748
vn -0.0345 0.9053 -0.4233
vn -0.0755 0.3694 -0.9262
vn -0.3830 0.9069 0.1756
vn -0.2508 0.9034 0.3479
vn -0.2508 0.9034 -0.3479
vn -0.5437 0.3688 0.7539
vn -0.0345 -0.9053 -0.4233
vn -0.0755 -0.3694 -0.9262
vn 0.1527 -0.9084 -0.3891
vn -0.5437 0.3688 -0.7539
vn -0.5437 -0.3688 -0.7539
vn -0.2509 -0.9034 -0.3479
vn 0.1527 -0.9084 0.3891
vt 0.468750 0.025000
vt 0.468750 0.184184
vt 0.468750 0.225000
vt 0.218750 0.469641
vt 0.218750 0.475000
vt 0.218750 0.459042
vt 0.218750 0.455821
vt 0.218750 0.455000
vt 0.218750 0.447021
vt 0.218750 0.435000
vt 0.218750 0.422979
vt 0.218750 0.415000
vt 0.218750 0.414179
vt 0.218750 0.410958
vt 0.218750 0.400359
vt 0.218750 0.395000
vt 0.218750 0.346367
vt 0.218750 0.355000
vt 0.218750 0.347071
vt 0.218750 0.336213
vt 0.218750 0.298789
vt 0.218750 0.284516
vt 0.218750 0.275000
vt 0.968750 0.164179
vt 0.968750 0.160958
vt 0.968750 0.172979
vt 0.968750 0.185000
vt 0.968750 0.197021
vt 0.968750 0.205821
vt 0.968750 0.209042
vt 0.968750 0.205000
vt 0.968750 0.075000
vt 0.968750 0.175000
vt 0.968750 0.045000
vt 0.968750 0.153660
vt 0.968750 0.225000
vt 0.968750 0.025000
vt 0.968750 0.176481
vt 0.968750 0.193146
vt 0.968750 0.145000
vt 0.468750 0.145000
s 1
usemtl colormap
f 3/1/1 2/2/2 1/2/3
f 2/2/2 3/1/1 4/1/4
f 6/2/5 4/1/4 5/1/6
f 4/1/4 6/2/5 2/2/2
f 3/1/1 8/2/7 7/1/8
f 8/2/7 3/1/1 1/2/3
f 11/2/9 10/1/10 9/2/11
f 10/1/10 11/2/9 12/1/12
f 14/1/13 7/1/13 13/1/13
f 7/1/13 14/1/13 3/1/13
f 3/1/13 14/1/13 4/1/13
f 4/1/13 14/1/13 10/1/13
f 4/1/13 10/1/13 12/1/13
f 4/1/13 12/1/13 5/1/13
f 9/2/11 16/3/14 15/3/15
f 16/3/14 9/2/11 17/2/16
f 8/2/7 19/3/17 18/2/18
f 19/3/17 8/2/7 20/3/19
f 10/1/10 17/2/16 9/2/11
f 17/2/16 10/1/10 14/1/20
f 1/2/3 22/3/21 21/3/22
f 22/3/21 1/2/3 2/2/2
f 2/2/2 23/3/23 22/3/21
f 23/3/23 2/2/2 6/2/5
f 14/1/20 18/2/18 17/2/16
f 18/2/18 14/1/20 13/1/24
f 24/3/25 9/2/11 15/3/15
f 9/2/11 24/3/25 11/2/9
f 19/3/17 17/2/16 18/2/18
f 17/2/16 19/3/17 16/3/14
f 1/2/3 20/3/19 8/2/7
f 20/3/19 1/2/3 21/3/22
f 13/1/24 8/2/7 18/2/18
f 8/2/7 13/1/24 7/1/8
f 6/2/5 12/1/12 11/2/9
f 12/1/12 6/2/5 5/1/6
f 20/3/19 16/3/14 19/3/17
f 16/3/14 20/3/19 21/3/22
f 16/3/14 21/3/22 22/3/21
f 16/3/14 22/3/21 15/3/15
f 15/3/15 22/3/21 23/3/23
f 15/3/15 23/3/23 24/3/25
f 24/3/25 6/2/5 11/2/9
f 6/2/5 24/3/25 23/3/23
f 27/4/26 26/4/26 25/5/26
f 28/6/26 26/4/26 27/4/26
f 27/4/26 29/7/26 28/6/26
f 30/8/26 29/7/26 27/4/26
f 29/7/26 30/8/26 31/9/26
f 32/7/26 26/4/26 28/6/26
f 32/7/26 33/8/26 26/4/26
f 34/9/26 33/8/26 32/7/26
f 35/10/26 33/8/26 34/9/26
f 35/10/26 36/10/27 33/8/26
f 37/11/28 36/10/27 35/10/26
f 37/11/28 38/12/28 36/10/27
f 39/13/29 38/12/28 37/11/28
f 40/14/26 38/12/28 39/13/29
f 38/12/28 40/14/26 41/15/30
f 42/12/26 41/15/30 40/14/26
f 42/12/26 40/14/26 43/13/26
f 42/12/26 43/13/26 44/11/26
f 45/15/26 41/15/30 42/12/26
f 41/15/30 45/15/26 46/16/26
f 68/16/26 67/15/26 63/15/26
f 64/12/26 63/15/26 67/15/26
f 66/11/26 65/13/26 64/12/26
f 65/13/26 62/14/26 64/12/26
f 62/14/26 63/15/26 64/12/26
f 63/15/26 62/14/26 60/12/26
f 61/13/26 60/12/26 62/14/26
f 59/11/26 60/12/26 61/13/26
f 58/10/26 60/12/26 59/11/26
f 57/10/26 58/10/26 59/11/26
f 55/8/26 58/10/26 57/10/26
f 56/9/26 55/8/26 57/10/26
f 54/7/26 55/8/26 56/9/26
f 48/4/26 55/8/26 54/7/26
f 50/6/26 48/4/26 54/7/26
f 53/9/26 52/8/26 51/7/26
f 49/4/26 51/7/26 52/8/26
f 50/6/26 51/7/26 49/4/26
f 49/4/26 48/4/26 50/6/26
f 47/5/26 48/4/26 49/4/26
f 71/17/31 70/18/32 69/18/33
f 70/18/32 71/17/31 72/17/34
s 0
f 73/17/35 72/17/36 71/17/31
s 1
f 72/17/34 74/19/37 70/18/32
s 0
f 73/17/35 71/17/31 75/17/31
s 1
f 76/18/33 73/17/38 75/17/31
f 73/17/38 76/18/33 77/18/39
f 78/19/40 73/17/38 77/18/41
f 79/20/42 73/17/38 78/19/40
f 72/17/34 80/20/43 74/19/37
f 79/20/42 81/21/44 73/17/38
f 81/21/44 72/17/34 73/17/38
f 81/21/44 79/20/42 82/22/45
f 83/21/46 80/20/43 72/17/34
f 72/17/34 81/21/44 83/21/46
f 82/22/45 83/21/46 81/21/44
f 80/20/43 83/21/46 84/22/47
f 83/21/46 82/22/45 84/22/47
f 82/22/45 85/23/48 84/22/47
f 85/23/48 82/22/45 86/23/49
f 86/23/49 87/23/50 85/23/48
f 87/23/50 86/23/49 88/23/50
f 39/24/29 43/24/26 40/25/26
f 43/24/26 39/24/29 44/26/26
f 44/26/26 39/24/29 37/26/28
f 44/26/26 37/26/28 35/27/26
f 44/26/26 35/27/26 89/27/26
f 89/27/26 35/27/26 34/28/26
f 89/27/26 34/28/26 31/28/26
f 31/28/26 34/28/26 32/29/26
f 31/28/26 32/29/26 29/29/26
f 29/29/26 32/29/26 28/30/26
f 50/30/26 54/29/26 51/29/26
f 51/29/26 54/29/26 53/28/26
f 54/29/26 56/28/26 53/28/26
f 53/28/26 56/28/26 90/27/26
f 56/28/26 57/27/26 90/27/26
f 90/27/26 57/27/26 66/26/26
f 57/27/26 59/26/26 66/26/26
f 59/26/26 61/24/26 66/26/26
f 66/26/26 61/24/26 65/24/26
f 62/25/26 65/24/26 61/24/26
f 93/31/51 92/32/52 91/33/53
f 92/32/52 93/31/51 94/34/54
s 0
f 94/34/55 93/31/56 95/35/57
s 1
f 98/32/58 97/31/59 96/34/60
f 97/31/59 98/32/58 99/33/61
f 97/31/59 100/32/62 96/34/60
f 100/32/62 97/31/59 101/33/63
f 97/31/59 103/36/64 102/31/65
f 103/36/64 97/31/59 104/36/66
f 106/37/67 96/34/60 105/34/68
f 96/34/60 106/37/67 107/37/69
f 93/31/51 108/33/70 102/31/65
f 108/33/70 93/31/51 91/33/53
f 94/34/54 106/37/67 105/34/68
f 106/37/67 94/34/54 109/37/71
f 110/32/72 102/31/65 105/34/68
f 102/31/65 110/32/72 111/33/73
f 78/38/74 113/31/75 112/35/76
f 113/31/75 78/38/74 77/39/77
f 114/32/78 99/33/61 98/32/58
f 99/33/61 114/32/78 115/33/79
f 99/33/61 113/31/75 97/31/59
f 113/31/75 99/33/61 115/33/79
f 101/33/63 110/32/72 100/32/62
f 110/32/72 101/33/63 111/33/73
f 103/36/64 117/36/80 116/36/81
f 117/36/80 103/36/64 104/36/66
f 69/39/33 118/33/33 71/33/33
f 118/33/33 69/39/33 76/39/33
s 0
f 76/39/33 69/39/33 70/39/82
f 76/39/33 70/39/82 77/39/83
s 1
f 77/39/77 70/39/84 93/31/51
f 77/39/77 93/31/51 113/31/75
f 116/36/81 113/31/75 93/31/51
f 113/31/75 116/36/81 117/36/80
f 104/36/66 113/31/75 117/36/80
f 113/31/75 104/36/66 97/31/59
f 97/31/59 111/33/73 101/33/63
f 111/33/73 97/31/59 102/31/65
f 93/31/85 74/38/86 95/35/87
f 74/38/86 93/31/85 70/39/88
f 119/32/89 94/34/54 105/34/68
f 94/34/54 119/32/89 92/32/52
f 120/34/90 115/33/79 114/32/78
f 115/33/79 120/34/90 113/31/75
s 0
f 113/31/91 120/34/92 112/35/93
s 1
f 120/34/90 98/32/58 96/34/60
f 98/32/58 120/34/90 114/32/78
f 120/34/90 107/37/69 121/37/94
f 107/37/69 120/34/90 96/34/60
f 91/33/53 119/32/89 108/33/70
f 119/32/89 91/33/53 92/32/52
f 108/33/70 105/34/68 102/31/65
f 105/34/68 108/33/70 119/32/89
f 103/36/64 93/31/51 102/31/65
f 93/31/51 103/36/64 116/36/81
f 100/32/62 105/34/68 96/34/60
f 105/34/68 100/32/62 110/32/72
f 126/36/95 123/36/96 139/31/97
f 138/31/98 139/31/97 123/36/96
f 142/31/99 139/31/97 145/40/100
f 137/40/101 145/40/100 139/31/97
f 144/31/102 130/31/103 143/40/104
f 132/40/105 143/40/104 130/31/103
f 125/36/106 127/36/107 144/31/102
f 130/31/103 144/31/102 127/36/107
f 123/36/96 122/36/108 138/31/98
f 135/31/109 138/31/98 122/36/108
f 129/36/110 131/31/111 127/36/107
f 130/31/103 127/36/107 131/31/111
f 128/36/112 126/36/95 142/31/99
f 139/31/97 142/31/99 126/36/95
f 124/36/113 125/36/106 134/31/114
f 144/31/102 134/31/114 125/36/106
f 138/31/98 135/31/109 136/40/115
f 141/40/116 136/40/115 135/31/109
f 142/31/99 145/40/100 131/31/111
f 133/40/117 131/31/111 145/40/100
f 134/31/114 144/31/102 140/40/118
f 143/40/104 140/40/118 144/31/102
f 128/36/112 142/31/99 129/36/110
f 131/31/111 129/36/110 142/31/99
f 141/40/116 135/31/109 140/40/118
f 134/31/114 140/40/118 135/31/109
f 139/31/97 138/31/98 137/40/101
f 136/40/115 137/40/101 138/31/98
f 122/36/108 124/36/113 135/31/109
f 134/31/114 135/31/109 124/36/113
f 133/40/117 132/40/105 131/31/111
f 130/31/103 131/31/111 132/40/105
f 129/36/110 127/36/107 128/36/112
f 128/36/112 127/36/107 126/36/95
f 127/36/107 125/36/106 126/36/95
f 126/36/95 125/36/106 123/36/96
f 125/36/106 124/36/113 123/36/96
f 122/36/108 123/36/96 124/36/113
f 150/36/119 147/36/120 163/31/121
f 162/31/122 163/31/121 147/36/120
f 166/31/123 163/31/121 169/40/124
f 161/40/125 169/40/124 163/31/121
f 168/31/126 154/31/127 167/40/128
f 156/40/129 167/40/128 154/31/127
f 149/36/130 151/36/131 168/31/126
f 154/31/127 168/31/126 151/36/131
f 147/36/120 146/36/132 162/31/122
f 159/31/133 162/31/122 146/36/132
f 153/36/134 155/31/135 151/36/131
f 154/31/127 151/36/131 155/31/135
f 152/36/136 150/36/119 166/31/123
f 163/31/121 166/31/123 150/36/119
f 148/36/137 149/36/130 158/31/138
f 168/31/126 158/31/138 149/36/130
f 162/31/122 159/31/133 160/40/139
f 165/40/140 160/40/139 159/31/133
f 166/31/123 169/40/124 155/31/135
f 157/40/141 155/31/135 169/40/124
f 158/31/138 168/31/126 164/40/142
f 167/40/128 164/40/142 168/31/126
f 152/36/136 166/31/123 153/36/134
f 155/31/135 153/36/134 166/31/123
f 165/40/140 159/31/133 164/40/142
f 158/31/138 164/40/142 159/31/133
f 163/31/121 162/31/122 161/40/125
f 160/40/139 161/40/125 162/31/122
f 146/36/132 148/36/137 159/31/133
f 158/31/138 159/31/133 148/36/137
f 157/40/141 156/40/129 155/31/135
f 154/31/127 155/31/135 156/40/129
f 153/36/134 151/36/131 152/36/136
f 152/36/136 151/36/131 150/36/119
f 151/36/131 149/36/130 150/36/119
f 150/36/119 149/36/130 147/36/120
f 149/36/130 148/36/137 147/36/120
f 146/36/132 147/36/120 148/36/137
f 172/36/143 171/36/144 170/36/145
f 171/36/144 172/36/143 173/36/146
f 171/36/144 173/36/146 174/36/147
f 174/36/147 173/36/146 175/36/148
f 174/36/147 175/36/148 176/36/149
f 176/36/149 175/36/148 177/36/150
f 180/40/151 179/31/152 178/31/153
f 179/31/152 180/40/151 181/40/154
f 172/36/143 183/31/155 182/31/156
f 183/31/155 172/36/143 170/36/145
f 186/31/157 185/40/158 184/40/159
f 185/40/158 186/31/157 187/31/160
f 183/31/155 188/40/161 182/31/156
f 188/40/161 183/31/155 189/40/162
f 190/31/163 177/36/150 179/31/152
f 177/36/150 190/31/163 176/36/149
f 192/31/164 188/40/161 191/40/165
f 188/40/161 192/31/164 182/31/156
f 193/40/166 179/31/152 181/40/154
f 179/31/152 193/40/166 190/31/163
f 183/31/155 184/40/159 189/40/162
f 184/40/159 183/31/155 186/31/157
f 173/36/146 182/31/156 192/31/164
f 182/31/156 173/36/146 172/36/143
f 174/36/147 190/31/163 187/31/160
f 190/31/163 174/36/147 176/36/149
f 179/31/152 175/36/148 178/31/153
f 175/36/148 179/31/152 177/36/150
f 170/36/145 186/31/157 183/31/155
f 186/31/157 170/36/145 171/36/144
f 175/36/148 192/31/164 178/31/153
f 192/31/164 175/36/148 173/36/146
f 178/31/153 191/40/165 180/40/151
f 191/40/165 178/31/153 192/31/164
f 187/31/160 193/40/166 185/40/158
f 193/40/166 187/31/160 190/31/163
f 171/36/144 187/31/160 186/31/157
f 187/31/160 171/36/144 174/36/147
f 196/41/167 195/3/168 194/41/169
f 195/3/168 196/41/167 197/3/170
f 198/41/171 197/3/170 196/41/167
f 197/3/170 198/41/171 199/3/172
f 202/3/173 201/41/174 200/41/175
f 201/41/174 202/3/173 203/3/176
f 195/3/168 200/41/175 194/41/169
f 200/41/175 195/3/168 202/3/173
f 206/41/177 205/3/178 204/41/179
f 205/3/178 206/41/177 207/3/180
f 208/3/181 201/41/174 203/3/176
f 201/41/174 208/3/181 209/41/182
f 208/3/181 206/41/177 209/41/182
f 206/41/177 208/3/181 207/3/180
f 198/41/171 210/3/183 199/3/172
f 210/3/183 198/41/171 211/41/184
f 204/41/179 210/3/183 211/41/184
f 210/3/183 204/41/179 205/3/178
f 202/3/173 208/3/181 203/3/176
f 208/3/181 202/3/173 207/3/26
f 207/3/26 202/3/173 195/3/168
f 207/3/26 195/3/168 205/3/26
f 205/3/26 195/3/168 197/3/170
f 205/3/26 197/3/170 210/3/183
f 210/3/183 197/3/170 199/3/172
f 209/41/185 200/41/185 201/41/185
f 200/41/185 209/41/185 206/41/185
f 200/41/185 206/41/185 204/41/185
f 200/41/185 204/41/185 194/41/185
f 194/41/185 204/41/185 196/41/185
f 196/41/185 204/41/185 198/41/185
f 198/41/185 204/41/185 211/41/185
f 214/36/186 213/33/187 212/33/188
f 213/33/187 214/36/186 215/36/189
f 218/37/190 217/32/191 216/32/192
f 217/32/191 218/37/190 219/37/193
f 222/33/194 221/32/195 220/32/196
f 221/32/195 222/33/194 223/33/197
f 226/33/198 225/36/199 224/33/200
f 225/36/199 226/33/198 227/36/201
f 230/32/202 229/33/203 228/32/204
f 229/33/203 230/32/202 231/33/205
f 233/37/206 220/32/196 232/37/207
f 220/32/196 233/37/206 234/32/208
f 232/37/207 221/32/195 235/37/209
f 221/32/195 232/37/207 220/32/196
f 224/33/200 217/32/191 226/33/198
f 217/32/191 224/33/200 216/32/192
f 212/33/188 216/32/192 224/33/200
f 216/32/192 212/33/188 236/32/210
f 239/36/211 238/33/212 237/36/213
f 238/33/212 239/36/211 240/33/214
f 215/36/189 231/33/205 213/33/187
f 231/33/205 215/36/189 241/36/215
f 228/32/204 242/37/216 230/32/202
f 242/37/216 228/32/204 243/37/217
f 222/33/194 239/36/211 244/36/218
f 239/36/211 222/33/194 240/33/214
f 246/32/219 233/37/206 245/37/220
f 233/37/206 246/32/219 234/32/208
f 220/32/196 240/33/214 222/33/194
f 240/33/214 220/32/196 234/32/208
f 248/37/221 221/32/195 247/32/222
f 221/32/195 248/37/221 235/37/209
f 249/37/223 219/37/193 218/37/190
f 219/37/193 249/37/223 250/37/224
f 219/37/193 250/37/224 251/37/225
f 251/37/225 250/37/224 242/37/216
f 251/37/225 242/37/216 248/37/221
f 248/37/221 242/37/216 243/37/217
f 248/37/221 243/37/217 235/37/209
f 235/37/209 243/37/217 245/37/220
f 235/37/209 245/37/220 232/37/207
f 232/37/207 245/37/220 233/37/206
f 228/32/204 245/37/220 243/37/217
f 245/37/220 228/32/204 246/32/219
f 246/32/219 240/33/214 234/32/208
f 240/33/214 246/32/219 238/33/212
f 252/32/226 249/37/223 236/32/210
f 249/37/223 252/32/226 250/37/224
f 223/33/197 254/36/227 253/33/228
f 254/36/227 223/33/197 255/36/229
f 229/33/203 246/32/219 228/32/204
f 246/32/219 229/33/203 238/33/212
f 223/33/197 247/32/222 221/32/195
f 247/32/222 223/33/197 253/33/228
f 213/33/187 236/32/210 212/33/188
f 236/32/210 213/33/187 252/32/226
f 236/32/210 218/37/190 216/32/192
f 218/37/190 236/32/210 249/37/223
f 219/37/193 256/32/230 217/32/191
f 256/32/230 219/37/193 251/37/225
f 247/32/222 257/33/231 256/32/230
f 257/33/231 247/32/222 253/33/228
f 253/33/228 258/36/232 257/33/231
f 258/36/232 253/33/228 254/36/227
f 241/36/215 229/33/203 231/33/205
f 229/33/203 241/36/215 259/36/233
f 213/33/187 230/32/202 252/32/226
f 230/32/202 213/33/187 231/33/205
f 237/36/213 229/33/203 259/36/233
f 229/33/203 237/36/213 238/33/212
f 226/33/198 256/32/230 257/33/231
f 256/32/230 226/33/198 217/32/191
f 225/36/199 212/33/188 224/33/200
f 212/33/188 225/36/199 214/36/186
f 257/33/231 227/36/201 226/33/198
f 227/36/201 257/33/231 258/36/232
f 223/33/197 244/36/218 255/36/229
f 244/36/218 223/33/197 222/33/194
f 227/36/201 214/36/186 225/36/199
f 214/36/186 227/36/201 258/36/232
f 214/36/186 258/36/232 215/36/189
f 215/36/189 258/36/232 241/36/215
f 241/36/215 258/36/232 254/36/227
f 241/36/215 254/36/227 255/36/229
f 241/36/215 255/36/229 259/36/233
f 259/36/233 255/36/229 237/36/213
f 237/36/213 255/36/229 244/36/218
f 237/36/213 244/36/218 239/36/211
f 251/37/225 247/32/222 256/32/230
f 247/32/222 251/37/225 248/37/221
f 230/32/202 250/37/224 252/32/226
f 250/37/224 230/32/202 242/37/216
f 262/36/234 261/33/235 260/33/236
f 261/33/235 262/36/234 263/36/237
f 266/37/238 265/32/239 264/32/240
f 265/32/239 266/37/238 267/37/241
f 270/33/242 269/32/243 268/32/244
f 269/32/243 270/33/242 271/33/245
f 274/33/246 273/36/247 272/33/248
f 273/36/247 274/33/246 275/36/249
f 278/32/250 277/33/251 276/32/252
f 277/33/251 278/32/250 279/33/253
f 281/37/254 268/32/244 280/37/255
f 268/32/244 281/37/254 282/32/256
f 280/37/255 269/32/243 283/37/257
f 269/32/243 280/37/255 268/32/244
f 272/33/248 265/32/239 274/33/246
f 265/32/239 272/33/248 264/32/240
f 260/33/236 264/32/240 272/33/248
f 264/32/240 260/33/236 284/32/258
f 287/36/259 286/33/260 285/36/261
f 286/33/260 287/36/259 288/33/262
f 263/36/237 279/33/253 261/33/235
f 279/33/253 263/36/237 289/36/263
f 276/32/252 290/37/264 278/32/250
f 290/37/264 276/32/252 291/37/265
f 270/33/242 287/36/259 292/36/266
f 287/36/259 270/33/242 288/33/262
f 294/32/267 281/37/254 293/37/268
f 281/37/254 294/32/267 282/32/256
f 268/32/244 288/33/262 270/33/242
f 288/33/262 268/32/244 282/32/256
f 296/37/269 269/32/243 295/32/270
f 269/32/243 296/37/269 283/37/257
f 297/37/271 267/37/241 266/37/238
f 267/37/241 297/37/271 298/37/272
f 267/37/241 298/37/272 299/37/273
f 299/37/273 298/37/272 290/37/264
f 299/37/273 290/37/264 296/37/269
f 296/37/269 290/37/264 291/37/265
f 296/37/269 291/37/265 283/37/257
f 283/37/257 291/37/265 293/37/268
f 283/37/257 293/37/268 280/37/255
f 280/37/255 293/37/268 281/37/254
f 276/32/252 293/37/268 291/37/265
f 293/37/268 276/32/252 294/32/267
f 294/32/267 288/33/262 282/32/256
f 288/33/262 294/32/267 286/33/260
f 300/32/274 297/37/271 284/32/258
f 297/37/271 300/32/274 298/37/272
f 271/33/245 302/36/275 301/33/276
f 302/36/275 271/33/245 303/36/277
f 277/33/251 294/32/267 276/32/252
f 294/32/267 277/33/251 286/33/260
f 271/33/245 295/32/270 269/32/243
f 295/32/270 271/33/245 301/33/276
f 261/33/235 284/32/258 260/33/236
f 284/32/258 261/33/235 300/32/274
f 284/32/258 266/37/238 264/32/240
f 266/37/238 284/32/258 297/37/271
f 267/37/241 304/32/278 265/32/239
f 304/32/278 267/37/241 299/37/273
f 295/32/270 305/33/279 304/32/278
f 305/33/279 295/32/270 301/33/276
f 301/33/276 306/36/280 305/33/279
f 306/36/280 301/33/276 302/36/275
f 289/36/263 277/33/251 279/33/253
f 277/33/251 289/36/263 307/36/281
f 261/33/235 278/32/250 300/32/274
f 278/32/250 261/33/235 279/33/253
f 285/36/261 277/33/251 307/36/281
f 277/33/251 285/36/261 286/33/260
f 274/33/246 304/32/278 305/33/279
f 304/32/278 274/33/246 265/32/239
f 273/36/247 260/33/236 272/33/248
f 260/33/236 273/36/247 262/36/234
f 305/33/279 275/36/249 274/33/246
f 275/36/249 305/33/279 306/36/280
f 271/33/245 292/36/266 303/36/277
f 292/36/266 271/33/245 270/33/242
f 275/36/249 262/36/234 273/36/247
f 262/36/234 275/36/249 306/36/280
f 262/36/234 306/36/280 263/36/237
f 263/36/237 306/36/280 289/36/263
f 289/36/263 306/36/280 302/36/275
f 289/36/263 302/36/275 303/36/277
f 289/36/263 303/36/277 307/36/281
f 307/36/281 303/36/277 285/36/261
f 285/36/261 303/36/277 292/36/266
f 285/36/261 292/36/266 287/36/259
f 299/37/273 295/32/270 304/32/278
f 295/32/270 299/37/273 296/37/269
f 278/32/250 298/37/272 300/32/274
f 298/37/272 278/32/250 290/37/264
f 310/2/5 309/1/4 308/1/6
f 309/1/4 310/2/5 311/2/2
f 314/2/9 313/1/10 312/2/11
f 313/1/10 314/2/9 315/1/12
f 313/1/10 316/2/16 312/2/11
f 316/2/16 313/1/10 317/1/20
f 310/2/5 315/1/12 314/2/9
f 315/1/12 310/2/5 308/1/6
f 319/1/1 311/2/2 318/2/3
f 311/2/2 319/1/1 309/1/4
f 322/1/24 321/2/7 320/2/18
f 321/2/7 322/1/24 323/1/8
f 319/1/1 321/2/7 323/1/8
f 321/2/7 319/1/1 318/2/3
f 321/2/7 324/3/17 320/2/18
f 324/3/17 321/2/7 325/3/19
f 326/3/25 310/2/5 314/2/9
f 310/2/5 326/3/25 327/3/23
f 317/1/13 323/1/13 322/1/13
f 323/1/13 317/1/13 319/1/13
f 319/1/13 317/1/13 313/1/13
f 319/1/13 313/1/13 309/1/13
f 309/1/13 313/1/13 315/1/13
f 309/1/13 315/1/13 308/1/13
f 326/3/25 312/2/11 328/3/15
f 312/2/11 326/3/25 314/2/9
f 312/2/11 329/3/14 328/3/15
f 329/3/14 312/2/11 316/2/16
f 318/2/3 325/3/19 321/2/7
f 325/3/19 318/2/3 330/3/22
f 317/1/20 320/2/18 316/2/16
f 320/2/18 317/1/20 322/1/24
f 325/3/19 329/3/14 324/3/17
f 329/3/14 325/3/19 330/3/22
f 329/3/14 330/3/22 331/3/21
f 329/3/14 331/3/21 328/3/15
f 328/3/15 331/3/21 327/3/23
f 328/3/15 327/3/23 326/3/25
f 318/2/3 331/3/21 330/3/22
f 331/3/21 318/2/3 311/2/2
f 324/3/17 316/2/16 320/2/18
f 316/2/16 324/3/17 329/3/14
f 311/2/2 327/3/23 331/3/21
f 327/3/23 311/2/2 310/2/5
